<svg width="27" height="27" viewBox="0 0 27 27" fill="none" xmlns="http://www.w3.org/2000/svg">
<path d="M17.793 15.2672C16.8237 15.2672 16.038 16.3566 16.038 17.6958C16.038 19.0377 16.8237 20.1272 17.793 20.1272C18.7623 20.1272 19.548 19.0377 19.548 17.6958C19.5467 16.3566 18.7623 15.2672 17.793 15.2672ZM23.9031 8.9451C24.1043 8.45235 24.1124 5.65245 23.0459 2.97C23.0459 2.97 20.601 3.23865 16.902 5.778C16.1258 5.562 14.8122 5.4567 13.5014 5.4567C12.1878 5.4567 10.8756 5.562 10.0994 5.778C6.39902 3.23865 3.95417 2.97 3.95417 2.97C2.88902 5.65245 2.89982 8.45235 3.09827 8.9451C1.84547 10.3059 1.08002 11.9408 1.08002 14.171C1.08002 23.8721 9.13007 24.0273 11.1605 24.0273L13.5014 24.03L15.8396 24.0273C17.8727 24.0273 25.92 23.8721 25.92 14.171C25.92 11.9408 25.1559 10.3059 23.9031 8.9451V8.9451ZM13.5378 22.8353H13.4622C8.37137 22.8353 4.40507 22.2291 4.40507 17.28C4.40507 16.0934 4.82357 14.9945 5.81852 14.0819C7.47497 12.5604 10.2803 13.365 13.4622 13.365H13.5378C16.7198 13.365 19.5264 12.5604 21.1842 14.0819C22.1765 14.9945 22.595 16.0934 22.595 17.28C22.595 22.2291 18.63 22.8353 13.5378 22.8353ZM9.20837 15.2672C8.23907 15.2672 7.45337 16.3566 7.45337 17.6958C7.45337 19.0377 8.23907 20.1272 9.20837 20.1272C10.179 20.1272 10.9647 19.0377 10.9647 17.6958C10.9647 16.3566 10.179 15.2672 9.20837 15.2672V15.2672Z" fill="black"/>
</svg>
